<svg width="20" height="20" viewBox="0 0 20 20" fill="none" xmlns="http://www.w3.org/2000/svg">
<path fill-rule="evenodd" clip-rule="evenodd" d="M9.8378 8.88977C9.17446 8.88977 8.63465 9.40573 8.63465 10.0398C8.63465 10.6738 9.17446 11.1898 9.8378 11.1898C10.5011 11.1898 11.041 10.6738 11.041 10.0398C11.041 9.40573 10.5011 8.88977 9.8378 8.88977ZM9.8378 12.7231C8.28974 12.7231 7.03044 11.5194 7.03044 10.0398C7.03044 8.5601 8.28974 7.35643 9.8378 7.35643C11.3859 7.35643 12.6452 8.5601 12.6452 10.0398C12.6452 11.5194 11.3859 12.7231 9.8378 12.7231ZM17.753 9.65797C17.2404 8.80543 14.4146 4.53203 9.62043 4.6754C5.18721 4.7835 2.60765 8.51717 1.92265 9.65797C1.78148 9.89487 1.78148 10.1847 1.92265 10.4216C2.42797 11.2626 5.15512 15.4064 9.85785 15.4064C9.92282 15.4064 9.9886 15.4057 10.0552 15.4041C14.4884 15.296 17.068 11.5624 17.753 10.4216C17.8941 10.1847 17.8941 9.89487 17.753 9.65797Z" fill="#D9D9D9"/>
</svg>
