<svg width="27" height="20" viewBox="0 0 27 20" fill="none" xmlns="http://www.w3.org/2000/svg">
<g clip-path="url(#clip0_602_2088)">
<path d="M25.9734 3.94381H23.1091C22.6389 1.6899 20.6904 0 18.36 0C16.0296 0 14.0811 1.6899 13.6088 3.94381H1.02662C0.74327 3.94381 0.486616 4.0621 0.299772 4.25222C0.114981 4.44444 0 4.70849 0 5C0 5.58302 0.459924 6.05619 1.02662 6.05619H13.6088C14.0811 8.3101 16.0296 10 18.36 10C20.6904 10 22.6389 8.3101 23.1091 6.05619H25.9734C26.2567 6.05619 26.5134 5.9379 26.7002 5.74778C26.885 5.55556 27 5.29151 27 5C27 4.41698 26.5401 3.94381 25.9734 3.94381ZM18.3579 8.16857C17.0172 8.16857 15.8756 7.28559 15.4547 6.05619C15.3397 5.72455 15.2781 5.36967 15.2781 5C15.2781 4.63033 15.3397 4.27545 15.4547 3.94381C15.8756 2.71441 17.0172 1.83143 18.3579 1.83143C19.6987 1.83143 20.8403 2.71441 21.2612 3.94381C21.3762 4.27545 21.4378 4.63033 21.4378 5C21.4378 5.36967 21.3762 5.72455 21.2612 6.05619C20.8403 7.28559 19.7008 8.16857 18.3579 8.16857Z" fill="#FF006A"/>
<path d="M0 15C0 15.2915 0.114981 15.5556 0.299772 15.7478C0.486616 15.9379 0.74327 16.0562 1.02662 16.0562H3.89087C4.36106 18.3101 6.30958 20 8.64 20C10.9704 20 12.9189 18.3101 13.3912 16.0562H25.9734C26.5401 16.0562 27 15.583 27 15C27 14.7085 26.885 14.4444 26.7002 14.2522C26.5134 14.0621 26.2567 13.9438 25.9734 13.9438H13.3912C12.9189 11.6899 10.9704 10 8.64 10C6.30958 10 4.36106 11.6899 3.89087 13.9438H1.02662C0.459924 13.9438 0 14.417 0 15ZM5.73878 16.0562C5.6238 15.7245 5.56221 15.3697 5.56221 15C5.56221 14.6303 5.6238 14.2755 5.73878 13.9438C6.1597 12.7144 7.29924 11.8314 8.64205 11.8314C9.98487 11.8314 11.1244 12.7144 11.5453 13.9438C11.6603 14.2755 11.7219 14.6303 11.7219 15C11.7219 15.3697 11.6603 15.7245 11.5453 16.0562C11.1244 17.2856 9.98281 18.1686 8.64205 18.1686C7.30129 18.1686 6.1597 17.2856 5.73878 16.0562Z" fill="#FF006A"/>
</g>
<defs>
<clipPath id="clip0_602_2088">
<rect width="27" height="20" fill="white"/>
</clipPath>
</defs>
</svg>
