<svg width="53" height="75" viewBox="0 0 53 75" fill="none" xmlns="http://www.w3.org/2000/svg">
<g clip-path="url(#clip0_722_3000)">
<path d="M26.3583 75C19.8791 75 13.4037 75 6.92457 74.989C2.7205 74.9817 0 72.282 0 68.1028C0 47.7143 0 27.3295 0 6.94106C0 2.75085 2.70945 0.0328787 6.89512 0.0219191C11.5998 0.00730638 16.3046 0 21.0093 0H35.9297L39.011 0.00365319C39.8577 0.00365319 40.5019 0.303215 41.0431 0.942523C42.442 2.60107 43.8482 4.25597 45.2545 5.91086C47.5627 8.62884 49.9482 11.4345 52.2711 14.2182C52.6908 14.7224 52.9632 15.5261 52.9669 16.264C52.9963 23.2854 52.9963 30.4238 52.9926 37.3283V49.8661C52.9926 55.923 52.9926 61.9837 52.9926 68.0407C52.9926 72.2565 50.2611 74.9817 46.0349 74.9854C39.4748 74.9927 32.9147 74.9963 26.3546 74.9963L26.3583 75ZM6.92457 3.23307C4.52434 3.23307 3.25429 4.49342 3.25429 6.8753C3.25429 27.293 3.25429 47.7107 3.25429 68.1247C3.25429 70.5504 4.51698 71.7815 7.00556 71.7815H26.5129H46.0239C48.4941 71.7815 49.7457 70.5395 49.7457 68.0918C49.7457 51.3492 49.7457 34.6103 49.7457 17.8678C49.7457 17.6595 49.7347 17.4476 49.7199 17.2175C49.7199 17.2102 49.7199 17.2029 49.7199 17.1919C49.2929 17.1919 48.8732 17.1846 48.4572 17.181C47.9419 17.1773 47.4338 17.17 46.9332 17.17C46.2374 17.17 45.6631 17.181 45.1256 17.2029C45.0115 17.2065 44.8974 17.2102 44.7833 17.2102C42.7586 17.2102 40.9363 16.4649 39.6515 15.1096C38.3851 13.7725 37.752 11.9679 37.8734 10.028C37.9728 8.42426 37.9471 6.83512 37.9213 5.15465C37.9103 4.51534 37.9029 3.87603 37.8992 3.22577H20.7148C16.1168 3.22577 11.5225 3.22577 6.92457 3.22577V3.23307ZM41.2124 6.1264C41.102 7.57306 41.1056 8.96493 41.1093 10.218C41.1093 10.5248 41.1093 10.8061 41.1425 11.0838C41.3339 12.6912 42.6334 13.904 44.2274 13.9698C44.706 13.9881 45.2214 13.999 45.8509 13.999C46.2779 13.999 46.716 13.9954 47.1688 13.9917C47.4044 13.9917 47.6437 13.9881 47.8903 13.9844L41.2124 6.12275V6.1264Z" fill="#FF006A"/>
<path d="M43.2886 39.122H9.50506C9.45352 39.122 9.40198 39.122 9.35045 39.122C8.13929 39.0928 7.39198 38.4681 7.40671 37.4927C7.41775 36.5136 8.1761 35.9036 9.38726 35.8999C12.2366 35.8999 15.0896 35.8999 17.939 35.8999H43.2223H43.6088C43.7855 35.8999 43.9917 35.9036 44.2052 35.9437C45.0482 36.0935 45.5636 36.6671 45.5783 37.4781C45.5967 38.3293 45.074 38.9357 44.1794 39.0964C43.9917 39.1293 43.8113 39.1366 43.6714 39.1366H43.2886V39.122Z" fill="#FF006A"/>
<path d="M9.29158 27.5049C9.0891 27.5049 8.93081 27.494 8.78355 27.4721C7.94789 27.3405 7.42515 26.7487 7.42146 25.9231C7.4141 25.0865 7.93317 24.4874 8.76883 24.3632C8.98603 24.3303 9.19954 24.3267 9.37993 24.3267H9.74438H43.2407C43.8224 24.3267 45.5857 24.3267 45.5968 25.8975C45.5968 26.325 45.4679 26.672 45.2029 26.935C44.8274 27.3113 44.1905 27.494 43.2555 27.494H9.7591C9.6818 27.494 9.37256 27.5013 9.29158 27.5013V27.5049Z" fill="#FF006A"/>
<path d="M43.2592 50.688H9.7481C8.79464 50.688 8.17249 50.5127 7.79332 50.1364C7.53194 49.877 7.39941 49.53 7.39941 49.1026C7.39941 48.0504 8.1909 47.5171 9.7481 47.5171H43.2481C43.3291 47.5171 43.631 47.5098 43.712 47.5098C43.9181 47.5098 44.0764 47.5207 44.2274 47.5463C45.063 47.6815 45.5821 48.2769 45.5784 49.1026C45.5784 49.9391 45.0557 50.531 44.22 50.6515C44.0028 50.6844 43.7856 50.688 43.6015 50.688H43.2629H43.2592Z" fill="#FF006A"/>
<path d="M43.4506 62.3125C43.3217 62.3125 43.1965 62.3125 43.0677 62.3088C42.9462 62.3088 42.8211 62.3052 42.6996 62.3052H28.6185C27.2159 62.3052 25.817 62.3052 24.4144 62.3015C23.7076 62.3015 23.1149 62.0275 22.7947 61.5526C22.5112 61.1398 22.4707 60.6283 22.6732 60.1169C23.0339 59.2109 23.8438 59.0977 24.5102 59.0977C25.401 59.0977 26.2772 59.0977 27.1533 59.0977H35.1381H43.4947C43.6972 59.0977 43.9181 59.1013 44.139 59.1305C45.0483 59.2474 45.5894 59.8393 45.582 60.7124C45.5747 61.5782 45.0151 62.1809 44.1206 62.2832C43.9291 62.3052 43.7156 62.3161 43.4542 62.3161L43.4506 62.3125Z" fill="#FF006A"/>
<path d="M9.50506 15.9243C9.29891 15.9243 9.07435 15.9206 8.84979 15.8877C7.95522 15.7672 7.40671 15.1571 7.42143 14.2949C7.43616 13.4182 8.00308 12.8227 8.90132 12.7387C9.13693 12.7168 9.3983 12.7058 9.7149 12.7058C9.87687 12.7058 10.0389 12.7058 10.2008 12.7095C10.3591 12.7095 10.5174 12.7131 10.6757 12.7131H24.3592C25.7434 12.7131 27.1239 12.7131 28.508 12.7131C29.2296 12.7131 29.8149 12.9506 30.1462 13.3743C30.426 13.7287 30.5107 14.1927 30.3892 14.6858C30.0837 15.9206 28.9167 15.9206 28.4749 15.9206H9.50506V15.9243Z" fill="#FF006A"/>
</g>
<defs>
<clipPath id="clip0_722_3000">
<rect width="53" height="75" fill="white"/>
</clipPath>
</defs>
</svg>
