<svg width="77" height="86" viewBox="0 0 77 86" fill="none" xmlns="http://www.w3.org/2000/svg">
<g clip-path="url(#clip0_722_3009)">
<path d="M43.1924 79.8319C43.1004 79.8319 43.0084 79.8283 42.9128 79.8246C42.8355 79.8209 42.7583 79.8172 42.6884 79.8172C38.1157 79.8172 33.5467 79.8172 28.9777 79.8172C25.7956 79.8172 22.6097 79.8172 19.4276 79.8172C17.5735 79.8172 17.1174 79.3577 17.1137 77.4794C17.1137 76.2186 17.1137 74.9541 17.1137 73.6933V71.2672H11.0732C8.93582 71.2672 8.56059 70.8886 8.56059 68.7346V62.2173H2.34349C0.507796 62.2173 0.00380672 61.7174 0.00380672 59.9015V54.0459C0.000127967 41.6252 0.000127966 28.7818 0.0332368 16.1516C0.0332368 15.4091 0.34961 14.5343 0.835205 13.9241C2.82541 11.4282 4.8708 8.91392 6.85365 6.48051C8.32147 4.67567 9.78929 2.87451 11.2498 1.06232C11.8494 0.319798 12.53 0 13.5232 0C19.4938 0.0147034 25.4534 0.0147034 31.413 0.0147034H43.7C45.5689 0.0147034 46.025 0.463156 46.0287 2.3121C46.0287 3.95521 46.0287 9.10874 46.0287 9.10874H50.8847C51.4438 9.10874 52.0067 9.10874 52.5658 9.10874C54.0631 9.11609 54.5708 9.616 54.5781 11.0863C54.5855 12.6706 54.5855 14.2549 54.5818 15.8833V17.633H61.3728C62.4874 17.633 63.1091 18.2469 63.1312 19.3607C63.1349 19.5665 63.1349 19.7724 63.1349 19.9782C63.1349 30.1272 63.1349 50.5539 63.1349 50.5539C63.1349 50.8222 63.1349 51.0979 63.1128 51.3736C63.0356 52.2227 62.4874 52.7263 61.6082 52.7483H61.5457C60.7069 52.7483 60.1514 52.2778 60.0227 51.4618C59.9675 51.1163 59.9712 50.7744 59.9712 50.4399V50.2929C59.9712 42.3825 59.9712 34.472 59.9712 26.5616V20.8053H47.9196C42.4603 20.8053 37.001 20.8053 31.5418 20.7906C30.9311 20.7906 30.5853 20.956 30.2137 21.4155C28.2382 23.8819 26.2076 26.3668 24.2431 28.7708C23.5294 29.642 22.8194 30.5132 22.1094 31.388H30.5375V28.4106C30.5375 27.521 30.5375 26.5984 30.5522 25.6905C30.5706 24.6723 31.1702 24.0363 32.1193 24.0363H32.1782C33.0905 24.0621 33.6718 24.687 33.6938 25.6721C33.7049 26.1132 33.7049 26.558 33.7049 26.9991V28.7157C33.7086 30.0059 33.7122 31.2924 33.7012 32.5827C33.6902 34.0787 33.142 34.6117 31.619 34.6117C30.1218 34.6117 28.6282 34.6117 27.1309 34.6117H20.362V76.6082C20.3731 76.6082 20.3804 76.6082 20.3915 76.6082C20.649 76.6229 20.9065 76.6376 21.164 76.6376C25.2732 76.6376 42.4934 76.6413 42.4934 76.6413C42.5891 76.6413 42.6884 76.634 42.7914 76.6266C42.9128 76.6156 43.0342 76.6082 43.1519 76.6082C43.3211 76.6082 43.5713 76.6229 43.7883 76.7626C44.0422 76.9243 44.8699 77.5014 44.892 78.1521C44.9104 78.6961 44.3696 79.2548 43.9097 79.6224C43.6964 79.7952 43.4168 79.8172 43.1961 79.8172L43.1924 79.8319ZM17.11 68.0435V60.0228C17.11 51.5169 17.1137 42.7243 17.0953 34.0751C17.0953 32.9576 17.397 32.0901 18.0849 31.263C21.4583 27.1976 24.8685 23.0181 28.2162 18.8387C28.9078 17.9785 29.6766 17.611 30.7913 17.611C33.6865 17.6293 36.7546 17.6404 40.7754 17.6404C42.4014 17.6404 51.3592 17.6367 51.3592 17.6367V12.2994C51.2672 12.292 51.1826 12.2847 51.0943 12.2847H40.8122C35.8091 12.2847 29.2205 12.2847 22.6613 12.3067C22.4074 12.3067 22.0064 12.5273 21.8004 12.7772C18.0371 17.3242 15.0205 21.0221 12.3092 24.4113C11.9855 24.8193 11.7574 25.4662 11.7537 25.9919C11.7243 37.5634 11.7243 49.3335 11.728 60.7102V68.0398H17.1137L17.11 68.0435ZM8.55691 59.023V52.1602C8.55691 43.3345 8.55691 34.2111 8.58266 25.2347C8.58266 24.4701 8.84385 23.6577 9.24484 23.1578C11.3969 20.4671 13.6078 17.7543 15.7489 15.1298C17.121 13.4462 18.4932 11.7664 19.858 10.0792C20.4172 9.3881 21.0426 9.09036 21.9439 9.09036C25.5601 9.10506 29.1579 9.10874 32.7521 9.10874H42.7951V3.19063C42.6626 3.18328 42.5412 3.17593 42.4198 3.17593H32.5902C27.1383 3.17593 20.6858 3.17593 14.1964 3.20166C13.9132 3.20166 13.4717 3.44059 13.2473 3.70892C9.80768 7.85895 6.68442 11.6892 3.6936 15.4165C3.40298 15.7804 3.19696 16.3538 3.19696 16.8096C3.17121 28.576 3.17121 40.5409 3.17121 52.1087V59.023H8.55691Z" fill="#FF006A"/>
<path d="M60.7472 86C59.0182 86 57.2193 85.6802 55.402 85.048C49.5233 83.0005 45.9512 78.6226 45.0757 72.3884C43.8875 63.9229 49.2842 56.3249 57.6276 54.7223C58.6135 54.5311 59.6031 54.4355 60.5633 54.4355C63.6718 54.4355 66.6626 55.4354 69.4438 57.402C70.9189 58.4459 70.4738 59.4641 70.2126 59.8537C69.8411 60.4088 69.3665 60.5264 69.0354 60.5264C68.605 60.5264 68.1268 60.3426 67.5786 59.964C65.3824 58.4422 62.8735 57.6372 60.3241 57.6372C54.5669 57.6372 49.6374 61.6843 48.3388 67.4738C47.5883 70.8261 48.2762 74.4174 50.2333 77.3213C52.1536 80.1738 55.0083 82.0485 58.2677 82.5962C58.952 82.7101 59.6436 82.7689 60.3315 82.7689C66.681 82.7689 71.9821 77.9683 72.659 71.6017C72.6958 71.2599 72.6847 70.9143 72.6737 70.5468C72.67 70.3703 72.6627 70.1939 72.6627 70.0211V69.6646H72.7068L72.6958 69.5212C72.6664 69.1242 72.6406 68.7309 72.6038 68.3339C72.5082 67.2826 73.0232 66.5879 73.9797 66.4739C74.0643 66.4629 74.1415 66.4592 74.2188 66.4592C75.0539 66.4592 75.6204 67.0253 75.7381 67.9737C76.3929 73.3183 74.8699 77.847 71.2096 81.4273C68.1047 84.4672 64.5841 86.0074 60.7435 86.0074L60.7472 86Z" fill="#FF006A"/>
<path d="M59.8716 75.8033C59.0807 75.8033 58.3081 75.4173 57.5025 74.616C56.8918 74.0132 56.2885 73.403 55.6815 72.7964C55.023 72.1348 54.3645 71.4731 53.6986 70.8188C52.8783 70.0102 52.801 69.2125 53.4706 68.4553C53.7759 68.1097 54.1548 67.926 54.5705 67.926C55.034 67.926 55.5086 68.1539 55.9464 68.5913C56.8992 69.5323 57.8372 70.488 58.882 71.5467L60.0592 72.7376C60.6294 72.1348 61.1923 71.5393 61.7514 70.9475C63.1972 69.4147 64.5657 67.9664 65.993 66.5291C67.7 64.8088 69.4584 63.0885 71.1617 61.4271C72.1145 60.4971 73.0673 59.5634 74.0164 58.6261C74.3916 58.2585 74.8515 57.8799 75.429 57.8799C75.738 57.8799 76.0507 57.9902 76.3561 58.2107C76.7423 58.4901 76.9631 58.8613 76.9962 59.2877C77.0367 59.806 76.7828 60.3611 76.2825 60.8536C74.5241 62.5886 72.7619 64.3163 70.9961 66.0439L68.6785 68.3119L66.578 70.3741C65.1322 71.7966 63.6828 73.2192 62.2333 74.6344C61.4277 75.421 60.6552 75.8033 59.8716 75.8033Z" fill="#FF006A"/>
<path d="M53.272 50.4363C53.169 50.4363 53.0586 50.429 52.9519 50.4253C52.86 50.4216 52.7717 50.4143 52.6907 50.4143C47.0328 50.4143 41.3749 50.4143 35.717 50.4143H27.3C27.2006 50.4143 27.1013 50.4143 27.0057 50.4143C25.4091 50.3592 25.1626 49.3557 25.1589 48.7638C25.1589 48.3007 25.284 47.9405 25.5342 47.6831C25.9204 47.2935 26.5164 47.242 27.0461 47.242C29.132 47.2457 31.1994 47.2494 33.2632 47.2494H52.8342C52.9041 47.2494 52.9777 47.242 53.0513 47.2347C53.1506 47.2237 53.2499 47.2163 53.3419 47.2163C53.5516 47.2163 53.7134 47.2604 53.8422 47.3523L53.9636 47.4405C54.4602 47.7897 55.0194 48.1904 55.0488 48.7161C55.0819 49.3299 54.4014 49.9364 53.993 50.2452C53.7686 50.4143 53.4853 50.4363 53.2683 50.4363H53.272Z" fill="#FF006A"/>
<path d="M53.2536 42.3751C51.1494 42.3715 49.0451 42.3678 46.9372 42.3678L34.1204 42.3751C32.2075 42.3751 29.6875 42.3751 27.1455 42.3494C26.6415 42.3457 25.9021 42.1362 25.4717 41.6878C25.1479 41.3496 25.0339 40.8938 25.159 40.4269C25.3025 39.8976 25.7255 39.4749 26.2663 39.3168C26.6526 39.2066 27.0683 39.2066 27.4361 39.2066H27.4729C33.3074 39.2066 39.1456 39.2029 44.9801 39.2029H53.0623C53.1396 39.2029 53.2132 39.2029 53.2904 39.2029C53.9563 39.2323 54.475 39.4455 54.7987 39.8204C55.0489 40.1108 55.1629 40.4857 55.1188 40.8974C55.0194 41.8789 54.394 42.3788 53.261 42.3788H53.2536V42.3751Z" fill="#FF006A"/>
<path d="M32.2443 58.3982C30.4932 58.3982 29.1541 58.3871 27.9034 58.3577C27.3368 58.3467 26.5386 58.0306 26.1817 57.5233C25.8617 57.0712 25.8102 56.5566 26.0419 56.1118C26.3215 55.5678 26.9837 55.2259 27.7673 55.2186C29.5404 55.2075 31.3136 55.2039 33.0904 55.2039H35.9819H39.8777C41.4817 55.2039 43.3836 55.2075 45.3149 55.2369C45.9109 55.248 46.5804 55.509 46.9777 55.8876C47.3309 56.2221 47.3897 57.1447 47.0844 57.5564C46.7643 57.9938 46.0948 58.343 45.5614 58.3541C44.0568 58.3871 42.5779 58.3908 41.4596 58.3908C40.8195 58.3908 36.6331 58.3835 36.6331 58.3835C35.8826 58.3835 35.1542 58.3835 34.4295 58.3871C33.7011 58.3871 32.9764 58.3908 32.248 58.3908L32.2443 58.3982Z" fill="#FF006A"/>
<path d="M37.6373 66.4225C37.0192 66.4225 36.3975 66.4225 35.7795 66.4188C35.2792 66.4188 34.7752 66.4151 34.2749 66.4151H33.9217L31.1332 66.4225C30.2025 66.4225 29.2755 66.4225 28.3447 66.4225C28.0394 66.4225 27.7157 66.4188 27.3882 66.3747C26.4649 66.2571 25.9499 65.68 25.9682 64.7904C25.9866 63.8972 26.5458 63.3348 27.4655 63.276C27.7672 63.2576 28.0615 63.2539 28.3079 63.2539H28.8929C28.8929 63.2539 33.2853 63.2502 34.205 63.2502C35.8016 63.2502 37.9132 63.2539 40.0652 63.2833C40.6428 63.2907 41.4521 63.57 41.8053 64.0736C42.118 64.5147 42.1658 65.0257 41.9414 65.4741C41.6581 66.0365 40.996 66.3931 40.2161 66.4078C39.3552 66.4225 38.4981 66.4262 37.6373 66.4262V66.4225Z" fill="#FF006A"/>
</g>
<defs>
<clipPath id="clip0_722_3009">
<rect width="77" height="86" fill="white"/>
</clipPath>
</defs>
</svg>
