<svg width="91" height="58" viewBox="0 0 91 58" fill="none" xmlns="http://www.w3.org/2000/svg">
<g clip-path="url(#clip0_705_3072)">
<path d="M62.0028 50.782H28.9599C28.4152 52.8981 27.3799 54.6911 25.6585 56.0411C20.7106 59.9213 13.4176 57.7845 11.4302 51.8172C11.1266 50.9103 10.7233 50.6743 9.83352 50.7199C8.34914 50.7944 6.86061 50.7654 5.37208 50.724C2.33681 50.637 0.0291683 48.4008 0.0208525 45.3986C-0.0082529 32.0394 -0.0082529 18.6762 0.0208525 5.31288C0.0291683 2.36443 2.32018 0.144811 5.29724 0.0205781C5.5384 0.0122959 5.77956 0.00815484 6.02487 0.00815484C26.3279 0.00815484 46.6352 -0.0208327 66.9382 0.0205781C76.227 0.0371424 83.2539 4.1451 87.9773 12.0753C89.9689 15.4171 90.9585 19.1068 90.9709 23.0036C91.0001 30.4078 91.0042 37.8121 90.9793 45.2164C90.9709 48.4133 88.6966 50.6619 85.495 50.7281C83.8692 50.7613 82.2435 50.7074 80.6178 50.7654C80.3184 50.7778 79.8693 51.0925 79.7737 51.3659C78.2602 55.5898 75.0295 58.0123 70.8799 57.9709C66.7886 57.9336 63.5579 55.4407 62.1816 51.2623C62.1275 51.105 62.0652 50.9476 61.9986 50.7737L62.0028 50.782ZM3.69644 18.1212C3.65902 18.4401 3.62576 18.6058 3.62576 18.7714C3.62576 27.5174 3.61744 36.2675 3.62992 45.0134C3.62992 46.4214 4.3326 47.1005 5.74629 47.1337C7.16414 47.1627 8.58614 47.1005 9.99983 47.1585C10.7732 47.1917 11.1142 46.9887 11.3678 46.1936C13.4966 39.5679 21.9455 37.6672 26.6439 42.8062C27.725 43.9865 28.3778 45.5601 29.3133 47.0964H62.007C62.0652 46.9308 62.1151 46.8024 62.1608 46.674C63.5454 42.4253 66.7719 39.9199 70.9049 39.8909C75.0503 39.8578 78.2727 42.2845 79.7779 46.5167C79.8735 46.79 80.3309 47.1005 80.6302 47.113C82.1146 47.1751 83.6031 47.1544 85.0917 47.1378C86.7008 47.1213 87.366 46.4628 87.3744 44.8644C87.3868 42.2472 87.3785 39.63 87.3744 37.0129C87.3744 36.781 87.3245 36.5532 87.287 36.2426H86.1187C83.3537 36.2426 80.5845 36.2426 77.8195 36.2426C74.7011 36.2426 72.8674 34.8802 71.9527 31.8904C71.2791 29.6873 70.6305 27.476 69.9694 25.2688C68.5349 20.4858 65.3499 18.1212 60.3396 18.1212C41.9035 18.1212 23.4715 18.1212 5.03529 18.1212H3.70476H3.69644ZM61.9487 3.74341V14.4854C62.0652 14.5226 62.1317 14.5516 62.1982 14.5641C62.402 14.6013 62.6057 14.6386 62.8094 14.6717C68.169 15.5538 71.6491 18.614 73.2957 23.7366C74.0524 26.0928 74.7177 28.4781 75.437 30.8468C75.8694 32.2672 76.331 32.6109 77.8278 32.615C80.6968 32.6233 83.5657 32.6192 86.4347 32.615C86.7299 32.615 87.0251 32.5612 87.2496 32.5364C87.2496 28.8839 87.3744 25.335 87.2164 21.8027C87.0459 17.9556 85.5781 14.5102 83.2206 11.4665C77.7862 4.46396 70.3103 2.94832 61.9446 3.73927L61.9487 3.74341ZM29.0306 14.4771V3.66473H18.2907V14.4771H29.0306ZM14.507 3.6109C11.6048 3.6109 8.77741 3.60261 5.95003 3.6109C4.28687 3.61918 3.62992 4.27347 3.62576 5.93819C3.61329 8.48495 3.6216 11.0359 3.62576 13.5826C3.62576 13.8766 3.6715 14.1707 3.69644 14.4481H14.507V3.6109ZM43.5957 14.4564V3.67301H32.8475V14.4564H43.5957ZM47.3878 14.444H58.1401V3.6813H47.3878V14.444ZM76.4307 48.9433C76.4307 45.941 73.9734 43.4854 70.9714 43.4937C67.9694 43.5019 65.5204 45.9783 65.5453 48.9723C65.5703 51.9291 67.9943 54.3516 70.9506 54.3723C73.9443 54.3971 76.4266 51.9332 76.4307 48.9392V48.9433ZM14.5735 48.9226C14.5694 51.9208 17.0309 54.3847 20.0287 54.3764C23.0224 54.3681 25.4839 51.8794 25.4589 48.8936C25.434 45.9328 23.0099 43.5185 20.0495 43.4978C17.0475 43.4771 14.5777 45.9245 14.5694 48.9226H14.5735Z" fill="#FF006A"/>
<path d="M39.209 28.9958C47.712 28.9958 56.2149 28.9958 64.7178 28.9958C65.0629 28.9958 65.4163 28.9585 65.7531 29.0248C66.6679 29.1987 67.2375 29.7329 67.3082 30.6895C67.3789 31.6295 66.8217 32.3708 65.8862 32.5571C65.4829 32.6358 65.0629 32.6358 64.6471 32.6358C47.6413 32.6358 30.6354 32.6358 13.6254 32.6358C13.2138 32.6358 12.7897 32.6441 12.3864 32.5654C11.4425 32.3873 10.9644 31.7496 10.9103 30.8262C10.8604 29.9441 11.5381 29.1656 12.4487 29.0248C12.7855 28.971 13.1389 28.9917 13.484 28.9917C22.0577 28.9917 30.6271 28.9917 39.2007 28.9917L39.209 28.9958Z" fill="#FF006A"/>
<path d="M34.7147 21.753C42.9058 21.753 51.0969 21.753 59.2879 21.753C59.633 21.753 59.9823 21.7323 60.3233 21.7779C61.2172 21.9021 61.9157 22.6931 61.8741 23.5668C61.8284 24.4944 61.3503 25.1239 60.4064 25.3061C60.0031 25.3806 59.5831 25.3724 59.1674 25.3724C42.7852 25.3724 26.403 25.3724 10.0167 25.3724C9.60092 25.3724 9.18097 25.3765 8.77765 25.3102C7.84628 25.157 7.26002 24.4199 7.28912 23.4964C7.31407 22.5937 7.97102 21.8731 8.89407 21.7696C9.23502 21.7323 9.58429 21.7489 9.92939 21.7489C18.1912 21.7489 26.4488 21.7489 34.7105 21.7489L34.7147 21.753Z" fill="#FF006A"/>
<path d="M45.5001 36.2344C50.236 36.2344 54.9676 36.2302 59.7035 36.2344C61.1546 36.2344 62.0985 37.1786 61.8531 38.3629C61.691 39.1373 61.2211 39.6591 60.4187 39.8081C60.0486 39.8785 59.6619 39.8827 59.2877 39.8827C50.0946 39.8827 40.9056 39.8827 31.7125 39.8827C31.5753 39.8827 31.4339 39.8827 31.2967 39.8827C29.9454 39.8495 29.1138 39.1497 29.1138 38.0523C29.1138 36.9591 29.9578 36.2344 31.2967 36.2302C36.0325 36.222 40.7642 36.2302 45.5001 36.2302V36.2344Z" fill="#FF006A"/>
</g>
<defs>
<clipPath id="clip0_705_3072">
<rect width="91" height="58" fill="white"/>
</clipPath>
</defs>
</svg>
