<svg width="60" height="65" viewBox="0 0 60 65" fill="none" xmlns="http://www.w3.org/2000/svg">
<path d="M5.04276 64.9974C3.62862 64.9974 3.07436 64.4421 3.07176 63.0243C3.06918 61.6684 3.07176 60.3151 3.07176 58.9179V56.5186H2.55376C2.44757 56.5186 2.06425 56.5212 1.97619 56.5212C1.87518 56.5212 1.77417 56.5212 1.67575 56.516C0.673423 56.4773 0.0699524 55.8858 0.0207423 54.8967C2.2317e-05 54.455 0.00261232 53.9979 0.00779232 53.5563C0.00779232 53.3677 0.0103823 53.1766 0.0103823 52.9881V49.1012C0.0129723 45.5346 0.0155623 41.8492 2.23173e-05 38.2231C-0.00256768 37.4354 0.220172 36.844 0.722633 36.3016C1.60841 35.3512 2.55117 34.2846 3.69078 32.9519C3.98863 32.6033 4.22173 32.1849 4.34605 31.7717C5.41054 28.2412 6.48021 24.6487 7.51362 21.1751L8.12227 19.1245C8.53926 17.7195 8.94848 17.4148 10.4196 17.4148H15.5918V14.4912C15.5918 13.218 15.5892 11.9447 15.597 10.6715C15.6048 9.40339 16.1875 8.81197 17.4307 8.80938C21.6006 8.80422 25.768 8.80164 29.9379 8.80164C34.1078 8.80164 38.3657 8.80422 42.5823 8.80938C43.7918 8.80938 44.3849 9.40597 44.3953 10.625C44.4056 11.8982 44.403 13.1947 44.403 14.4473C44.403 14.9974 44.403 17.4148 44.403 17.4148H50.3704C51.7975 17.4148 52.243 17.7428 52.6418 19.078L53.4965 21.9473C54.4445 25.1317 55.4261 28.4272 56.4051 31.6632C56.5631 32.1875 56.8247 32.7298 57.1614 33.2334C57.8322 34.2381 58.5574 35.2608 59.381 36.3585C59.8006 36.9215 59.9974 37.5258 59.9948 38.2644L59.9897 40.5656C59.9767 45.0955 59.9638 49.7805 60.0078 54.3879C60.0156 55.1265 59.8239 55.7128 59.4535 56.0847C59.1531 56.3869 58.7387 56.5418 58.2207 56.5418C58.1378 56.5418 58.0523 56.5367 57.9643 56.5289C57.9306 56.5263 57.8969 56.5237 57.8607 56.5237C57.7648 56.5237 57.6768 56.5341 57.581 56.547C57.5266 56.5547 57.467 56.5625 57.3945 56.5676L56.9231 56.609V57.0816C56.9231 57.7118 56.9231 58.3393 56.9231 58.9618C56.9257 60.4597 56.9283 61.875 56.9153 63.3187C56.905 64.344 56.273 64.9716 55.2215 65H48.9148C47.4644 65 46.0166 65 44.5662 65C43.2064 65 42.6237 64.4189 42.6159 63.063C42.6082 61.8569 42.6107 60.6534 42.6107 59.4473V56.578H17.4489L17.4204 57.0635C17.4178 57.1255 17.4126 57.1875 17.4074 57.252C17.3945 57.4122 17.3841 57.5775 17.3841 57.7505C17.3841 58.4685 17.3841 59.1839 17.3841 59.9018C17.3841 60.9478 17.3841 61.9912 17.3815 63.0372C17.3738 64.4318 16.7988 65 15.3898 65C13.6416 65 11.8907 65 10.1425 65C8.39422 65 6.74439 65 5.04535 65L5.04276 64.9974ZM6.3274 61.7329H14.1803V60.3435C14.1829 59.3414 14.1855 58.3936 14.1647 57.4277C14.157 57.0454 13.7374 56.5444 13.3049 56.5392C11.8907 56.5237 10.4973 56.5212 9.19971 56.5212H6.3274V61.7329ZM51.0749 56.5263C49.5804 56.5263 48.0964 56.5263 46.6149 56.5392C46.2367 56.5392 45.8327 56.9395 45.8275 57.314C45.812 58.3703 45.8146 59.4395 45.8146 60.4752V61.7329H53.6701V56.5289H51.0749V56.5263ZM53.2272 34.3827C47.9954 34.3853 42.7661 34.3879 37.5343 34.3879C27.5058 34.3905 17.4799 34.3931 7.45146 34.406C6.97231 34.406 6.48539 34.6952 6.21603 34.9793C5.33543 35.9091 4.50663 36.8466 3.75553 37.7608C3.44214 38.1405 3.24789 38.6518 3.2453 39.0961C3.22458 42.5516 3.22717 46.0666 3.22717 49.4654V53.2774H56.7625V49.1477C56.7625 46.7691 56.7625 44.3879 56.7625 42.0093C56.7625 41.6684 56.7832 41.3223 56.8065 40.9556C56.8609 40.0568 56.9179 39.1296 56.6408 38.2696C56.3688 37.4173 55.7887 36.7019 55.2318 36.0098C54.9961 35.718 54.7708 35.439 54.5714 35.1549C54.5584 35.1343 54.5429 35.1162 54.5273 35.0955C54.5273 35.0955 54.5273 35.0955 54.5273 35.0981C54.1596 34.3827 53.4629 34.3827 53.2323 34.3827H53.2272ZM7.89435 31.1518H52.8723L49.7462 20.6534H11.0231L7.89694 31.1518H7.89435ZM27.1096 17.376H32.8879V12.0403H27.1096V17.376ZM18.8319 17.376H23.8125V12.0403H18.8319V17.376ZM36.1668 17.3709H41.137V12.0248H36.1668V17.3709Z" fill="#FF006A"/>
<path d="M18.5032 7.07639C17.936 7.07639 17.4413 6.77422 17.1823 6.2706C16.5141 4.97928 15.9961 3.80934 15.5998 2.69364C15.4444 2.25975 15.5143 1.78713 15.7889 1.39973C16.0919 0.971014 16.5866 0.715332 17.115 0.715332C17.1409 0.715332 17.1668 0.715332 17.1927 0.715332C17.8376 0.754072 18.2805 1.04075 18.5446 1.59343C19.0445 2.64457 19.5677 3.77318 20.0209 4.90955C20.3343 5.69725 19.9976 6.5392 19.2232 6.90851C18.9979 7.01698 18.7492 7.0738 18.5084 7.0738L18.5032 7.07639Z" fill="#FF006A"/>
<path d="M39.7876 7.07899C39.5442 7.07899 39.2929 7.01959 39.065 6.91112C38.2906 6.53922 37.9591 5.69469 38.2751 4.90698C38.7568 3.70605 39.2929 2.55678 39.7565 1.59087C40.0259 1.02527 40.4895 0.736012 41.1707 0.712769C41.7042 0.712769 42.2015 0.971033 42.5045 1.39975C42.7817 1.78973 42.849 2.26494 42.691 2.70141C42.2896 3.81711 41.769 4.98705 41.1008 6.27837C40.8418 6.7794 40.3497 7.07899 39.785 7.07899H39.7876Z" fill="#FF006A"/>
<path d="M29.0626 6.35072C28.2001 6.31198 27.5759 5.65341 27.5448 4.7469C27.5345 4.39824 27.5371 4.03667 27.5397 3.68802C27.5397 3.53306 27.5422 3.3781 27.5422 3.22056C27.5422 3.03977 27.5422 2.85641 27.5397 2.67304C27.5345 2.29081 27.5319 1.93182 27.5474 1.57025C27.5863 0.697314 28.2571 0.0232438 29.1066 0H29.1506C29.9924 0 30.6684 0.606921 30.7202 1.41271C30.7979 2.58264 30.7979 3.76808 30.7202 4.94318C30.6658 5.7593 30.0027 6.35331 29.1429 6.35331C29.1144 6.35331 29.0885 6.35331 29.06 6.35331L29.0626 6.35072Z" fill="#FF006A"/>
<path d="M12.0876 49.5041C10.8418 49.5041 9.5442 49.4964 8.23625 49.4783C7.15622 49.4628 6.55533 48.8456 6.54238 47.735C6.51907 45.7955 6.51907 43.7397 6.54238 41.6245C6.55533 40.4778 7.17694 39.8657 8.33985 39.8554C8.82418 39.8502 9.30592 39.8502 9.79025 39.8502H12.085H14.3435C14.8174 39.8502 15.2914 39.8502 15.7654 39.8554C16.9697 39.8631 17.5836 40.4701 17.5887 41.6581C17.5965 43.8172 17.5965 45.7981 17.5887 47.7118C17.5836 48.8146 16.9749 49.4577 15.9182 49.4732C14.6776 49.4912 13.3904 49.5016 12.0928 49.5016L12.0876 49.5041ZM9.77212 46.2474H14.3357V43.1147H9.77212V46.2474Z" fill="#FF006A"/>
<path d="M47.8841 49.5016C46.6098 49.5016 45.3485 49.4938 44.1389 49.4809C43.0278 49.468 42.4114 48.8404 42.4062 47.7118C42.3958 45.5037 42.3958 43.5021 42.4062 41.5935C42.4114 40.5011 43.0537 39.8683 44.1648 39.8554C44.6466 39.8502 45.1283 39.8477 45.61 39.8477C45.9882 39.8477 47.5059 39.8528 47.8867 39.8528H50.2073C50.689 39.8502 51.1708 39.8528 51.6525 39.8528C52.8154 39.8632 53.437 40.4752 53.45 41.6219C53.4733 43.7965 53.4733 45.7955 53.45 47.7325C53.437 48.8637 52.8284 49.4654 51.6914 49.4783C50.3886 49.4913 49.1065 49.499 47.8841 49.499V49.5016ZM45.6567 46.25H50.2099V43.0863H45.6567V46.25Z" fill="#FF006A"/>
<path d="M29.5647 45.8936C27.1819 45.8936 25.0193 45.8885 22.9576 45.8781C22.4759 45.8781 22.0615 45.7103 21.7611 45.4029C21.4684 45.1033 21.313 44.6875 21.3259 44.2304C21.3467 43.3265 22.0434 42.6912 23.0172 42.686C23.9703 42.6808 24.926 42.6782 25.8792 42.6782C26.5992 42.6782 30.1475 42.6808 30.1475 42.6808C30.8261 42.6808 31.5072 42.6808 32.1858 42.6782C32.8644 42.6782 33.543 42.6757 34.2216 42.6757C35.1566 42.6757 36.0941 42.6782 37.0291 42.6886C37.6326 42.6963 38.1506 42.9752 38.4459 43.4556C38.7308 43.9179 38.7489 44.4706 38.5002 44.9768C38.205 45.5734 37.7129 45.8756 37.0395 45.8781C34.5479 45.8859 32.0563 45.8911 29.5673 45.8911L29.5647 45.8936Z" fill="#FF006A"/>
</svg>
