<svg width="21" height="20" viewBox="0 0 21 20" fill="none" xmlns="http://www.w3.org/2000/svg">
<path d="M3.78509 6.79081C4.62622 6.79081 5.46734 6.78544 6.30847 6.79529C6.47938 6.79708 6.55365 6.7416 6.6136 6.5859C7.3554 4.66563 8.10257 2.74804 8.85153 0.830452C9.10119 0.190659 9.67029 -0.116262 10.3128 0.0403305C10.745 0.145919 11.017 0.429575 11.1754 0.838505C11.7991 2.44559 12.4263 4.05178 13.0527 5.65798C13.1717 5.96221 13.3006 6.26377 13.4044 6.57337C13.4607 6.7416 13.5422 6.79618 13.7229 6.79529C15.3899 6.78723 17.0579 6.78813 18.7249 6.79171C19.4247 6.7935 19.9454 7.24448 20.0099 7.90486C20.0555 8.37374 19.8586 8.73882 19.4945 9.02785C18.0887 10.141 16.6856 11.2586 15.2808 12.3736C14.9094 12.668 14.9076 12.6653 15.0723 13.1216C15.6987 14.8549 16.3295 16.5863 16.9505 18.3205C17.2342 19.1124 16.7689 19.8802 15.9465 19.9902C15.6306 20.0323 15.3479 19.9321 15.0839 19.7558C13.4554 18.6722 11.8232 17.593 10.1973 16.5058C10.0577 16.4128 9.96916 16.411 9.82957 16.5049C8.19742 17.5975 6.5626 18.6856 4.92419 19.7665C4.18507 20.2542 3.25268 19.9186 3.0245 19.0936C2.94128 18.7939 2.99855 18.5075 3.10235 18.2212C3.7493 16.4405 4.38999 14.6571 5.03873 12.8773C5.096 12.7199 5.07721 12.6357 4.9403 12.5275C3.46117 11.3624 1.98741 10.1911 0.51544 9.01711C-0.134195 8.49901 -0.173567 7.62925 0.421485 7.09863C0.666664 6.8794 0.960163 6.79171 1.28409 6.79081C2.11805 6.79081 2.95113 6.79081 3.78509 6.79081Z" fill="#F7CE23"/>
</svg>
