<svg width="21" height="20" viewBox="0 0 21 20" fill="none" xmlns="http://www.w3.org/2000/svg">
<path d="M7.01332 7.29526L7.01271 7.29525C6.39462 7.28802 5.7778 7.28905 5.15709 7.29008C4.93702 7.29044 4.71646 7.29081 4.49518 7.29081H4.49029H4.48541H4.48052H4.47563H4.47075H4.46586H4.46097H4.45609H4.4512H4.44631H4.44143H4.43654H4.43166H4.42677H4.42188H4.417H4.41211H4.40722H4.40234H4.39745H4.39257H4.38768H4.38279H4.37791H4.37302H4.36814H4.36325H4.35836H4.35348H4.34859H4.34371H4.33882H4.33393H4.32905H4.32416H4.31928H4.31439H4.3095H4.30462H4.29973H4.29485H4.28996H4.28508H4.28019H4.2753H4.27042H4.26553H4.26065H4.25576H4.25088H4.24599H4.24111H4.23622H4.23133H4.22645H4.22156H4.21668H4.21179H4.20691H4.20202H4.19714H4.19225H4.18736H4.18248H4.17759H4.17271H4.16782H4.16294H4.15805H4.15317H4.14828H4.1434H4.13851H4.13363H4.12874H4.12386H4.11897H4.11409H4.1092H4.10432H4.09943H4.09454H4.08966H4.08477H4.07989H4.075H4.07012H4.06523H4.06035H4.05546H4.05058H4.04569H4.04081H4.03592H4.03104H4.02615H4.02127H4.01638H4.0115H4.00661H4.00173H3.99685H3.99196H3.98708H3.98219H3.97731H3.97242H3.96754H3.96265H3.95777H3.95288H3.948H3.94311H3.93823H3.93334H3.92846H3.92357H3.91869H3.9138H3.90892H3.90404H3.89915H3.89427H3.88938H3.8845H3.87961H3.87473H3.86984H3.86496H3.86007H3.85519H3.8503H3.84542H3.84054H3.83565H3.83077H3.82588H3.821H3.81611H3.81123H3.80634H3.80146H3.79658H3.79169H3.78681H3.78192H3.77704H3.77215H3.76727H3.76238H3.7575H3.75262H3.74773H3.74285H3.73796H3.73308H3.72819H3.72331H3.71843H3.71354H3.70866H3.70377H3.69889H3.694H3.68912H3.68424H3.67935H3.67447H3.66958H3.6647H3.65982H3.65493H3.65005H3.64516H3.64028H3.63539H3.63051H3.62563H3.62074H3.61586H3.61097H3.60609H3.60121H3.59632H3.59144H3.58655H3.58167H3.57678H3.5719H3.56702H3.56213H3.55725H3.55236H3.54748H3.5426H3.53771H3.53283H3.52794H3.52306H3.51818H3.51329H3.50841H3.50352H3.49864H3.49376H3.48887H3.48399H3.4791H3.47422H3.46934H3.46445H3.45957H3.45468H3.4498H3.44492H3.44003H3.43515H3.43026H3.42538H3.4205H3.41561H3.41073H3.40584H3.40096H3.39608H3.39119H3.38631H3.38142H3.37654H3.37166H3.36677H3.36189H3.357H3.35212H3.34724H3.34235H3.33747H3.33259H3.3277H3.32282H3.31793H3.31305H3.30817H3.30328H3.2984H3.29351H3.28863H3.28375H3.27886H3.27398H3.26909H3.26421H3.25933H3.25444H3.24956H3.24467H3.23979H3.23491H3.23002H3.22514H3.22026H3.21537H3.21049H3.2056H3.20072H3.19584H3.19095H3.18607H3.18118H3.1763H3.17142H3.16653H3.16165H3.15676H3.15188H3.147H3.14211H3.13723H3.13234H3.12746H3.12258H3.11769H3.11281H3.10792H3.10304H3.09816H3.09327H3.08839H3.08351H3.07862H3.07374H3.06885H3.06397H3.05909H3.0542H3.04932H3.04443H3.03955H3.03467H3.02978H3.0249H3.02001H3.01513H3.01025H3.00536H3.00048H2.99559H2.99071H2.98583H2.98094H2.97606H2.97117H2.96629H2.96141H2.95652H2.95164H2.94675H2.94187H2.93699H2.9321H2.92722H2.92233H2.91745H2.91256H2.90768H2.9028H2.89791H2.89303H2.88814H2.88326H2.87838H2.87349H2.86861H2.86372H2.85884H2.85396H2.84907H2.84419H2.8393H2.83442H2.82953H2.82465H2.81977H2.81488H2.81H2.80511H2.80023H2.79534H2.79046H2.78558H2.78069H2.77581H2.77092H2.76604H2.76115H2.75627H2.75139H2.7465H2.74162H2.73673H2.73185H2.72696H2.72208H2.7172H2.71231H2.70743H2.70254H2.69766H2.69277H2.68789H2.683H2.67812H2.67324H2.66835H2.66347H2.65858H2.6537H2.64881H2.64393H2.63904H2.63416H2.62928H2.62439H2.61951H2.61462H2.60974H2.60485H2.59997H2.59508H2.5902H2.58531H2.58043H2.57554H2.57066H2.56578H2.56089H2.55601H2.55112H2.54624H2.54135H2.53647H2.53158H2.5267H2.52181H2.51693H2.51204H2.50716H2.50227H2.49739H2.4925H2.48762H2.48273H2.47785H2.47296H2.46808H2.46319H2.45831H2.45342H2.44854H2.44365H2.43877H2.43388H2.429H2.42411H2.41923H2.41434H2.40946H2.40457H2.39969H2.3948H2.38992H2.38503H2.38015H2.37526H2.37038H2.36549H2.36061H2.35572H2.35084H2.34595H2.34107H2.33618H2.3313H2.32641H2.32153H2.31664H2.31176H2.30687H2.30198H2.2971H2.29221H2.28733H2.28244H2.27756H2.27267H2.26779H2.2629H2.25802H2.25313H2.24824H2.24336H2.23847H2.23359H2.2287H2.22382H2.21893H2.21404H2.20916H2.20427H2.19939H2.1945H2.18962H2.18473H2.17984H2.17496H2.17007H2.16519H2.1603H2.15542H2.15053H2.14564H2.14076H2.13587H2.13099H2.1261H2.12121H2.11633H2.11144H2.10656H2.10167H2.09678H2.0919H2.08701H2.08212H2.07724H2.07235H2.06747H2.06258H2.05769H2.05281H2.04792H2.04303H2.03815H2.03326H2.02838H2.02349H2.0186H2.01372H2.00883H2.00394H1.99906H1.99492C1.76649 7.29155 1.6001 7.35042 1.46485 7.47135L1.46434 7.47181C1.11604 7.7824 1.11333 8.2881 1.53728 8.6262L1.53729 8.62621C3.00885 9.79988 4.48174 10.9705 5.95976 12.1347L5.96054 12.1353C6.06108 12.2148 6.19912 12.3462 6.25511 12.5536C6.31035 12.7581 6.25868 12.9383 6.21871 13.0482L6.21858 13.0486C5.8528 14.0521 5.49032 15.0547 5.12757 16.058C4.84659 16.8352 4.56545 17.6128 4.2825 18.3916C4.19339 18.6374 4.1737 18.8062 4.21637 18.9599L4.21649 18.9603C4.34913 19.4399 4.88722 19.6604 5.35892 19.3492L5.35893 19.3492C6.99622 18.269 8.63009 17.1815 10.2615 16.0894L10.5396 16.5049M7.01332 7.29526L19.4339 7.29171C19.8987 7.29298 20.1849 7.57005 20.2223 7.95329C20.2483 8.22066 20.1529 8.43046 19.8939 8.63603C19.027 9.32255 18.1605 10.0112 17.2944 10.6995C16.7561 11.1273 16.218 11.5549 15.68 11.9819C15.6743 11.9865 15.6685 11.9911 15.6626 11.9957C15.5835 12.0583 15.4976 12.1264 15.4305 12.1914C15.354 12.2656 15.2523 12.3812 15.2044 12.5511C15.1567 12.7201 15.1823 12.8718 15.2083 12.9752C15.2318 13.0692 15.2704 13.1761 15.3066 13.2762L15.312 13.2913L15.3121 13.2916C15.5138 13.8495 15.7157 14.4069 15.9176 14.964C16.3434 16.1392 16.7688 17.3132 17.1899 18.4891L17.1899 18.4891C17.3677 18.9857 17.0926 19.4272 16.5906 19.4946C16.4318 19.5157 16.2703 19.4726 16.0717 19.34L16.071 19.3395C15.4847 18.9494 14.8985 18.5602 14.3125 18.1712C13.269 17.4785 12.2263 16.7862 11.1853 16.0902L11.1848 16.0898C11.0833 16.0221 10.9274 15.9364 10.7265 15.9352C10.5235 15.934 10.3656 16.0194 10.2605 16.0901L10.5396 16.5049M7.01332 7.29526C7.14664 7.29665 7.32933 7.27804 7.49895 7.15962C7.66587 7.04309 7.74563 6.8814 7.79009 6.76607C8.53156 4.84666 9.27847 2.92974 10.0273 1.01236L10.0274 1.01221M7.01332 7.29526L10.0274 1.01221M10.5396 16.5049C10.6792 16.411 10.7678 16.4128 10.9074 16.5058L4.65684 15.8894C4.37577 16.6668 4.0947 17.4443 3.81243 18.2212C3.70864 18.5075 3.65137 18.7939 3.73459 19.0936C3.96276 19.9186 4.89516 20.2542 5.63428 19.7665C7.27269 18.6856 8.90751 17.5975 10.5396 16.5049ZM1.13157 7.09863L1.13157 7.09864L1.13157 7.09863ZM1.13157 7.09863C1.37675 6.8794 1.67025 6.79171 1.99417 6.79081L1.13157 7.09863ZM10.0274 1.01221C10.1147 0.788375 10.2458 0.650577 10.3826 0.57664C10.5181 0.503408 10.6928 0.474515 10.9045 0.52611C11.1489 0.585901 11.3083 0.732694 11.4192 1.01909L11.4193 1.0194M10.0274 1.01221L11.4193 1.0194M11.4193 1.0194C11.9276 2.32915 12.4383 3.63836 12.9488 4.94699C13.0649 5.24457 13.1809 5.54212 13.2969 5.83964L13.2971 5.84012M11.4193 1.0194L13.2971 5.84012M13.2971 5.84012C13.3339 5.93404 13.3699 6.02382 13.4049 6.11113M13.2971 5.84012L13.4049 6.11113M13.4049 6.11113C13.4906 6.32467 13.5704 6.5235 13.6403 6.73224M13.4049 6.11113L13.6403 6.73224M13.6403 6.73224C13.684 6.86256 13.7651 7.03623 13.9428 7.15905M13.6403 6.73224L13.9428 7.15905M13.9428 7.15905C14.1167 7.27927 14.3047 7.29592 14.4354 7.29528L13.9428 7.15905Z" stroke="#F7CE23"/>
</svg>
